<?xml version="1.0" encoding="UTF-8"?>
<!DOCTYPE svg PUBLIC "-//W3C//DTD SVG 1.1//EN" "http://www.w3.org/Graphics/SVG/1.1/DTD/svg11.dtd">
<svg xmlns="http://www.w3.org/2000/svg" version="1.1" width="2286px" height="2212px" style="shape-rendering:geometricPrecision; text-rendering:geometricPrecision; image-rendering:optimizeQuality; fill-rule:evenodd; clip-rule:evenodd" xmlns:xlink="http://www.w3.org/1999/xlink">
<g><path style="opacity:0.998" fill="#0e059a" d="M 356.5,359.5 C 361.44,356.23 365.773,352.23 369.5,347.5C 505.843,216.28 666.177,125.78 850.5,76C 1076.9,17.6319 1300.57,26.6319 1521.5,103C 1752.93,187.406 1936.77,331.906 2073,536.5C 2220.98,770.413 2271.32,1024.08 2224,1297.5C 2174.38,1543.51 2054.88,1747.68 1865.5,1910C 1676.2,2067.4 1457.86,2154.4 1210.5,2171C 923.623,2185.36 667.623,2104.69 442.5,1929C 258.901,1780.11 136.401,1590.94 75,1361.5C 16.9113,1121.47 38.9113,889.138 141,664.5C 194.816,549.891 266.649,448.225 356.5,359.5 Z"/></g>
<g><path style="opacity:1" fill="#fcfcfe" d="M 1089.5,65.5 C 1338.17,56.1475 1564.83,121.314 1769.5,261C 1956.18,393.411 2087.34,567.911 2163,784.5C 2223.39,969.649 2231.05,1156.98 2186,1346.5C 2125.37,1580.07 2000.54,1770.9 1811.5,1919C 1627.08,2059.46 1418.41,2134.79 1185.5,2145C 920.812,2153.43 683.479,2078.09 473.5,1919C 288.025,1773.71 164.192,1586.87 102,1358.5C 43.7071,1122.15 65.3738,893.484 167,672.5C 278.919,443.581 450.086,274.748 680.5,166C 810.493,106.251 946.826,72.7514 1089.5,65.5 Z"/></g>
<g><path style="opacity:1" fill="#060399" d="M 1093.5,91.5 C 1340.56,82.8142 1564.22,149.981 1764.5,293C 1955.95,435.249 2083.78,621.749 2148,852.5C 2208.72,1096.87 2183.39,1331.87 2072,1557.5C 1972.48,1748.35 1827.98,1894.85 1638.5,1997C 1446.64,2096.99 1242.98,2135.99 1027.5,2114C 789.883,2086.22 584.883,1990.56 412.5,1827C 211.263,1628 108.597,1386.17 104.5,1101.5C 110.66,819.976 213.327,580.81 412.5,384C 576.012,228.921 770.012,134.587 994.5,101C 1027.54,96.7405 1060.54,93.5739 1093.5,91.5 Z"/></g>
<g><path style="opacity:1" fill="#fefefe" d="M 1094.5,116.5 C 1313.15,108.74 1514.82,162.907 1699.5,279C 1887.53,401.813 2020.7,568.646 2099,779.5C 2161.29,958.495 2171.63,1140.49 2130,1325.5C 2076.1,1543.59 1962.93,1723.76 1790.5,1866C 1587.22,2027.09 1355.22,2103.09 1094.5,2094C 820.923,2078.1 589.09,1972.6 399,1777.5C 206.899,1569.41 117.899,1323.08 132,1038.5C 153.508,785.017 255.341,570.517 437.5,395C 622.591,224.186 841.591,131.352 1094.5,116.5 Z"/></g>
<g><path style="opacity:1" fill="#040299" d="M 1269.5,415.5 C 1269.5,417.5 1269.5,419.5 1269.5,421.5C 1228.83,421.5 1188.17,421.5 1147.5,421.5C 1147.5,419.5 1147.5,417.5 1147.5,415.5C 1155.37,415.559 1163.03,414.392 1170.5,412C 1175.9,410.276 1178.56,406.609 1178.5,401C 1178.01,395.861 1176.51,391.028 1174,386.5C 1166.5,373.5 1159,360.5 1151.5,347.5C 1110.93,346.171 1070.43,346.171 1030,347.5C 1020.48,363.208 1011.48,379.208 1003,395.5C 1001.08,404.943 1004.91,410.776 1014.5,413C 1022.04,414.977 1029.71,415.811 1037.5,415.5C 1037.5,417.5 1037.5,419.5 1037.5,421.5C 1004.83,421.5 972.167,421.5 939.5,421.5C 939.5,419.5 939.5,417.5 939.5,415.5C 948.542,414.792 957.209,412.625 965.5,409C 971.228,404.061 976.394,398.561 981,392.5C 1020.7,325.63 1060.2,258.63 1099.5,191.5C 1102.45,190.345 1105.45,190.179 1108.5,191C 1147.21,258.248 1186.04,325.415 1225,392.5C 1235.42,408.463 1250.26,416.13 1269.5,415.5 Z"/></g>
<g><path style="opacity:1" fill="#060399" d="M 1454.5,240.5 C 1479.31,253.825 1503.81,267.825 1528,282.5C 1554.87,362.771 1581.53,443.104 1608,523.5C 1629.92,486.664 1651.59,449.664 1673,412.5C 1676.22,406.736 1678.88,400.736 1681,394.5C 1682.41,388.465 1681.07,383.132 1677,378.5C 1669.34,371.172 1660.84,365.006 1651.5,360C 1652.29,358.915 1652.96,357.748 1653.5,356.5C 1654.36,355.417 1655.36,355.251 1656.5,356C 1687.34,374.252 1718.34,392.252 1749.5,410C 1748.69,411.972 1747.36,413.472 1745.5,414.5C 1738.78,410.473 1731.78,406.973 1724.5,404C 1714.07,400.238 1705.23,402.404 1698,410.5C 1663.58,469.003 1629.41,527.669 1595.5,586.5C 1592.53,585.44 1590.03,583.773 1588,581.5C 1559.53,495.093 1530.86,408.76 1502,322.5C 1479,362.167 1456,401.833 1433,441.5C 1430.06,447.046 1427.39,452.713 1425,458.5C 1423.93,463.768 1424.6,468.768 1427,473.5C 1434.71,482.196 1443.87,489.029 1454.5,494C 1453.46,495.918 1452.29,497.751 1451,499.5C 1419.42,481.293 1387.92,462.96 1356.5,444.5C 1357.17,442.483 1358.34,440.817 1360,439.5C 1369.43,446.048 1379.76,450.382 1391,452.5C 1398.33,452.667 1404,449.667 1408,443.5C 1436.73,395.093 1465.07,346.426 1493,297.5C 1489.53,280.998 1481.36,267.165 1468.5,256C 1463.17,252.333 1457.83,248.667 1452.5,245C 1453.58,243.67 1454.25,242.17 1454.5,240.5 Z"/></g>
<g><path style="opacity:1" fill="#fbfbfd" d="M 1090.5,243.5 C 1092.07,243.937 1093.24,244.937 1094,246.5C 1110.5,275.5 1127,304.5 1143.5,333.5C 1108.5,334.833 1073.5,334.833 1038.5,333.5C 1056.29,303.724 1073.62,273.724 1090.5,243.5 Z"/></g>
<g><path style="opacity:1" fill="#050299" d="M 739.5,266.5 C 742.401,267.001 743.901,268.667 744,271.5C 732.103,277.396 722.77,286.063 716,297.5C 715.191,302.363 715.858,307.03 718,311.5C 747.833,360.503 778.166,409.169 809,457.5C 811.869,460.704 815.035,463.537 818.5,466C 833.341,466.501 846.508,462.001 858,452.5C 859.167,454.167 860.333,455.833 861.5,457.5C 824.002,481.417 786.335,505.083 748.5,528.5C 747.248,526.999 746.248,525.332 745.5,523.5C 751.167,519.667 756.833,515.833 762.5,512C 770.758,505.78 774.258,497.613 773,487.5C 770.94,482.38 768.607,477.38 766,472.5C 753.333,452.5 740.667,432.5 728,412.5C 687.667,437.833 647.333,463.167 607,488.5C 606.333,489.167 606.333,489.833 607,490.5C 619.917,510.665 632.584,530.999 645,551.5C 647.905,556.129 651.405,560.296 655.5,564C 661.636,566.961 667.97,567.295 674.5,565C 683.046,562.108 690.879,557.941 698,552.5C 699.659,553.817 700.826,555.483 701.5,557.5C 664.084,581.292 626.584,604.958 589,628.5C 587.833,626.833 586.667,625.167 585.5,623.5C 594.144,618.591 601.977,612.591 609,605.5C 613.105,600.522 614.771,594.855 614,588.5C 611.194,581.554 607.861,574.888 604,568.5C 576.25,523.998 548.25,479.665 520,435.5C 512.353,427.037 503.186,425.203 492.5,430C 485.294,433.186 478.461,437.019 472,441.5C 470.833,439.833 469.667,438.167 468.5,436.5C 505.612,412.557 543.112,389.224 581,366.5C 583.3,367.439 584.3,369.106 584,371.5C 572.103,377.396 562.77,386.063 556,397.5C 555.745,405.077 557.745,412.077 562,418.5C 574.667,438.5 587.333,458.5 600,478.5C 640.333,453.167 680.667,427.833 721,402.5C 721.667,401.833 721.667,401.167 721,400.5C 709.75,383.001 698.75,365.335 688,347.5C 684.265,341.096 679.765,335.263 674.5,330C 668.661,327.093 662.661,326.76 656.5,329C 647.609,332.112 639.276,336.279 631.5,341.5C 630.248,339.999 629.248,338.332 628.5,336.5C 665.54,313.106 702.54,289.773 739.5,266.5 Z"/></g>
<g><path style="opacity:0.82" fill="#644db8" d="M 369.5,347.5 C 365.773,352.23 361.44,356.23 356.5,359.5C 360.227,354.77 364.56,350.77 369.5,347.5 Z"/></g>
<g><path style="opacity:1" fill="#8080cc" d="M 1037.5,415.5 C 1038.47,417.607 1038.8,419.941 1038.5,422.5C 1005.33,422.832 972.329,422.498 939.5,421.5C 972.167,421.5 1004.83,421.5 1037.5,421.5C 1037.5,419.5 1037.5,417.5 1037.5,415.5 Z"/></g>
<g><path style="opacity:1" fill="#8282cd" d="M 1147.5,415.5 C 1147.5,417.5 1147.5,419.5 1147.5,421.5C 1188.17,421.5 1228.83,421.5 1269.5,421.5C 1269.5,419.5 1269.5,417.5 1269.5,415.5C 1270.47,417.607 1270.8,419.941 1270.5,422.5C 1229.17,422.5 1187.83,422.5 1146.5,422.5C 1146.2,419.941 1146.53,417.607 1147.5,415.5 Z"/></g>
<g><path style="opacity:1" fill="#000099" d="M 1115.5,445.5 C 1293.88,441.444 1449.88,497.611 1583.5,614C 1718.54,738.6 1791.37,893.1 1802,1077.5C 1806.91,1262.55 1747.24,1422.88 1623,1558.5C 1497.15,1688.48 1343.32,1757.32 1161.5,1765C 979.345,1767.75 821.679,1707.75 688.5,1585C 540.978,1439.86 472.811,1263.36 484,1055.5C 500.177,879.986 572.677,732.819 701.5,614C 819.661,510.117 957.661,453.951 1115.5,445.5 Z"/></g>
<g><path style="opacity:1" fill="#f7f6fb" d="M 1089.5,692.5 C 1094.62,709.326 1093.12,725.659 1085,741.5C 1083.33,743.167 1081.67,744.833 1080,746.5C 1074.54,739.77 1072.54,732.103 1074,723.5C 1075.48,711.211 1080.64,700.877 1089.5,692.5 Z"/></g>
<g><path style="opacity:1" fill="#f9f9fc" d="M 1151.5,696.5 C 1155.27,695.822 1158.11,697.156 1160,700.5C 1167.22,713.988 1169.39,728.321 1166.5,743.5C 1158.13,738.948 1152.96,731.948 1151,722.5C 1150.26,713.798 1150.42,705.132 1151.5,696.5 Z"/></g>
<g><path style="opacity:1" fill="#fdfdfe" d="M 1134.5,714.5 C 1136.39,714.297 1137.89,714.963 1139,716.5C 1145.39,736.096 1157.22,751.596 1174.5,763C 1176.49,764.319 1177.65,766.152 1178,768.5C 1185.01,803.574 1192.35,838.574 1200,873.5C 1223.49,957.122 1246.82,1040.79 1270,1124.5C 1275.67,1138.5 1280.33,1152.83 1284,1167.5C 1294.2,1209.07 1303.87,1250.73 1313,1292.5C 1338.83,1323.67 1367.33,1352.17 1398.5,1378C 1401.79,1380.61 1404.29,1383.78 1406,1387.5C 1409.13,1402.83 1410.63,1418.33 1410.5,1434C 1409.77,1457.88 1408.27,1481.72 1406,1505.5C 1404.41,1507.67 1403.08,1510 1402,1512.5C 1400.72,1520.47 1399.72,1528.47 1399,1536.5C 1392.24,1542.26 1386.57,1548.93 1382,1556.5C 1379.39,1569.92 1383.56,1572.75 1394.5,1565C 1402.99,1557.19 1408.83,1547.69 1412,1536.5C 1415.39,1511.8 1419.05,1487.14 1423,1462.5C 1423.1,1441.15 1422.43,1419.82 1421,1398.5C 1416.28,1389.07 1412.12,1379.4 1408.5,1369.5C 1409.35,1368.01 1410.68,1367.34 1412.5,1367.5C 1422.96,1368.46 1429.13,1374.13 1431,1384.5C 1438.25,1441.59 1433.25,1497.59 1416,1552.5C 1411.63,1564.07 1405.13,1574.24 1396.5,1583C 1391.5,1586.75 1386,1589.58 1380,1591.5C 1363.25,1578.98 1360.41,1563.81 1371.5,1546C 1323.26,1507.2 1276.59,1466.53 1231.5,1424C 1207.76,1406.04 1183.92,1388.21 1160,1370.5C 1154.33,1350.85 1150.33,1330.85 1148,1310.5C 1144.22,1281.25 1141.22,1251.91 1139,1222.5C 1133.2,1120.21 1131.7,1017.88 1134.5,915.5C 1147.6,920.764 1156.43,930.097 1161,943.5C 1164.81,953.599 1167.81,963.932 1170,974.5C 1173.43,992.427 1176.43,1010.43 1179,1028.5C 1182.16,1046.65 1188.82,1063.32 1199,1078.5C 1186.73,1018.16 1174.06,957.824 1161,897.5C 1159.65,892.62 1157.15,888.453 1153.5,885C 1151.76,884.349 1150.1,884.515 1148.5,885.5C 1146.29,888.203 1143.96,890.703 1141.5,893C 1138.1,894.135 1136.1,892.968 1135.5,889.5C 1131.48,869.482 1130.15,849.315 1131.5,829C 1131.91,821.841 1134.91,816.175 1140.5,812C 1141.5,811.333 1142.5,811.333 1143.5,812C 1152.23,821.403 1159.4,831.903 1165,843.5C 1174.81,864.934 1181.81,887.267 1186,910.5C 1189.5,937.643 1195.16,964.31 1203,990.5C 1207.87,1006.23 1214.87,1020.9 1224,1034.5C 1223.88,1025.78 1221.88,1017.44 1218,1009.5C 1214.92,1003.01 1211.59,996.675 1208,990.5C 1207.81,981.457 1207.14,972.457 1206,963.5C 1201.74,948.046 1197.07,932.713 1192,917.5C 1186.32,890.419 1182.32,863.086 1180,835.5C 1176.91,816.541 1169.74,799.375 1158.5,784C 1155.21,783.254 1152.71,784.42 1151,787.5C 1148.46,791.852 1146.8,796.519 1146,801.5C 1145.2,802.804 1144.03,803.471 1142.5,803.5C 1139.03,802.004 1136.19,799.67 1134,796.5C 1128.89,787.162 1126.22,777.162 1126,766.5C 1124.49,751.883 1125.82,737.55 1130,723.5C 1130.99,720.194 1132.49,717.194 1134.5,714.5 Z"/></g>
<g><path style="opacity:1" fill="#fdfdfe" d="M 1098.5,720.5 C 1106.04,720.529 1110.87,724.195 1113,731.5C 1118.35,750.222 1119.69,769.222 1117,788.5C 1116.14,792.596 1114.98,796.596 1113.5,800.5C 1118.76,812.974 1121.93,825.974 1123,839.5C 1124.46,858.368 1123.12,877.035 1119,895.5C 1118.83,900.5 1118.67,905.5 1118.5,910.5C 1124.52,1016.92 1128.19,1123.42 1129.5,1230C 1128.51,1271.53 1126.68,1313.03 1124,1354.5C 1119.25,1364.33 1113.25,1373.33 1106,1381.5C 1097.77,1390.4 1088.93,1398.57 1079.5,1406C 1042.83,1430.67 1006.17,1455.33 969.5,1480C 947.663,1495.83 926.996,1513.16 907.5,1532C 893.501,1541.33 879.168,1550.17 864.5,1558.5C 861.665,1556.17 859.831,1553.17 859,1549.5C 842.625,1503.14 840.292,1456.14 852,1408.5C 860.5,1400.67 869,1392.83 877.5,1385C 892.326,1374.42 907.326,1364.09 922.5,1354C 935.942,1341.9 947.109,1328.07 956,1312.5C 982.487,1193.03 1008.15,1073.36 1033,953.5C 1042.67,899.173 1052.33,844.84 1062,790.5C 1064.37,779.418 1070.04,770.418 1079,763.5C 1088.22,750.386 1094.72,736.053 1098.5,720.5 Z"/></g>
<g><path style="opacity:1" fill="#0e079b" d="M 1041.5,1024.5 C 1040.83,1028.17 1040.17,1031.83 1039.5,1035.5C 1038.58,1009.57 1040.75,983.902 1046,958.5C 1057.36,900.357 1070.86,842.69 1086.5,785.5C 1090.46,784.34 1094.46,784.173 1098.5,785C 1098.77,790.003 1100.43,794.503 1103.5,798.5C 1098.94,803.294 1095.78,808.96 1094,815.5C 1073.2,884.354 1055.7,954.02 1041.5,1024.5 Z"/></g>
<g><path style="opacity:1" fill="#0a059a" d="M 1099.5,883.5 C 1102.04,883.104 1104.21,883.771 1106,885.5C 1106.11,891.99 1108.27,897.657 1112.5,902.5C 1110.5,906.997 1107.17,908.497 1102.5,907C 1097.05,901.81 1094.55,902.977 1095,910.5C 1098.65,913.425 1100.82,917.258 1101.5,922C 1096.47,933.764 1092.63,945.931 1090,958.5C 1085.13,983.187 1080.13,1007.85 1075,1032.5C 1072.04,1044.37 1067.71,1055.7 1062,1066.5C 1059.08,1071.42 1055.42,1075.75 1051,1079.5C 1062.12,1040.66 1069.46,1001 1073,960.5C 1077.64,934.915 1085.31,910.249 1096,886.5C 1097.15,885.364 1098.31,884.364 1099.5,883.5 Z"/></g>
<g><path style="opacity:1" fill="#4238ae" d="M 1041.5,1024.5 C 1041.67,1032.17 1041.5,1039.84 1041,1047.5C 1039.65,1043.64 1039.15,1039.64 1039.5,1035.5C 1040.17,1031.83 1040.83,1028.17 1041.5,1024.5 Z"/></g>
<g><path style="opacity:1" fill="#08039a" d="M 2041.5,1168.5 C 2044.29,1169.48 2047.29,1169.81 2050.5,1169.5C 2050.5,1168.5 2050.5,1167.5 2050.5,1166.5C 2051.69,1148.82 2053.02,1131.16 2054.5,1113.5C 2064.13,1114.63 2073.8,1115.3 2083.5,1115.5C 2081.36,1141.82 2079.36,1168.16 2077.5,1194.5C 2020.84,1189.74 1964.17,1185.07 1907.5,1180.5C 1907.4,1172.81 1907.74,1165.14 1908.5,1157.5C 1952.83,1161.21 1997.16,1164.88 2041.5,1168.5 Z"/></g>
<g><path style="opacity:1" fill="#09039a" d="M 371.5,1137.5 C 372.5,1137.5 373.5,1137.5 374.5,1137.5C 375.573,1145.16 376.573,1152.83 377.5,1160.5C 355.124,1163.22 332.791,1166.22 310.5,1169.5C 312.435,1184.21 314.601,1198.88 317,1213.5C 336.119,1210.67 355.286,1207.84 374.5,1205C 377.5,1204.33 380.5,1204.33 383.5,1205C 385.102,1212.05 386.102,1219.21 386.5,1226.5C 329.472,1234.31 272.472,1242.31 215.5,1250.5C 214.98,1242.82 214.313,1235.15 213.5,1227.5C 238.155,1224.07 262.821,1220.74 287.5,1217.5C 285.778,1203.45 283.778,1189.45 281.5,1175.5C 278.216,1174.34 274.882,1174.18 271.5,1175C 249.865,1178.16 228.198,1181 206.5,1183.5C 205.937,1176.1 204.937,1168.77 203.5,1161.5C 259.693,1153.95 315.693,1145.95 371.5,1137.5 Z"/></g>
<g><path style="opacity:1" fill="#9794d4" d="M 2050.5,1166.5 C 2050.5,1167.5 2050.5,1168.5 2050.5,1169.5C 2047.29,1169.81 2044.29,1169.48 2041.5,1168.5C 2044.86,1168.91 2047.86,1168.24 2050.5,1166.5 Z"/></g>
<g><path style="opacity:1" fill="#040299" d="M 2066.5,1230.5 C 2068.6,1230.2 2070.6,1230.53 2072.5,1231.5C 2070.45,1239.09 2068.78,1246.75 2067.5,1254.5C 2054.17,1255.01 2040.84,1255.51 2027.5,1256C 2023.98,1270.25 2020.64,1284.58 2017.5,1299C 2028.83,1305.33 2040.5,1311.16 2052.5,1316.5C 2052.83,1317.33 2053.17,1318.17 2053.5,1319C 2052.07,1326.23 2050.4,1333.4 2048.5,1340.5C 1995.47,1314.32 1942.47,1288.15 1889.5,1262C 1891.23,1254.2 1892.89,1246.37 1894.5,1238.5C 1952.02,1236.43 2009.35,1233.76 2066.5,1230.5 Z"/></g>
<g><path style="opacity:1" fill="#faf9fd" d="M 1933.5,1260.5 C 1938.5,1259.83 1943.5,1259.17 1948.5,1258.5C 1964.49,1257.72 1980.49,1257.39 1996.5,1257.5C 1995.3,1267.5 1992.97,1277.17 1989.5,1286.5C 1970.81,1277.82 1952.14,1269.16 1933.5,1260.5 Z"/></g>
<g><path style="opacity:1" fill="#aba9dd" d="M 1948.5,1258.5 C 1943.5,1259.17 1938.5,1259.83 1933.5,1260.5C 1932.96,1260.44 1932.62,1260.11 1932.5,1259.5C 1937.79,1258.51 1943.13,1258.17 1948.5,1258.5 Z"/></g>
<g><path style="opacity:1" fill="#040299" d="M 339.5,1266.5 C 358.13,1264.61 375.797,1267.78 392.5,1276C 409.367,1289.94 414.534,1307.44 408,1328.5C 400.604,1343.23 389.771,1354.73 375.5,1363C 346.196,1379.16 314.863,1386.49 281.5,1385C 246.381,1378.89 232.214,1358.39 239,1323.5C 248.278,1305.56 262.112,1292.39 280.5,1284C 299.414,1275.19 319.081,1269.36 339.5,1266.5 Z"/></g>
<g><path style="opacity:1" fill="#fdfdfe" d="M 335.5,1290.5 C 343.174,1290.33 350.841,1290.5 358.5,1291C 381.685,1297.9 387.185,1311.73 375,1332.5C 366.916,1340.8 357.416,1346.96 346.5,1351C 334.435,1355.36 322.102,1358.69 309.5,1361C 295.6,1363.86 283.1,1361.03 272,1352.5C 264.672,1341.87 264.672,1331.21 272,1320.5C 280.024,1311.9 289.524,1305.4 300.5,1301C 312.057,1296.7 323.723,1293.2 335.5,1290.5 Z"/></g>
<g><path style="opacity:1" fill="#050299" d="M 1895.5,1317.5 C 1921.57,1317.79 1943.73,1327.13 1962,1345.5C 1968.92,1354.16 1970.92,1363.83 1968,1374.5C 1964.37,1383.73 1961.37,1393.06 1959,1402.5C 1978.74,1410.52 1998.57,1418.36 2018.5,1426C 2015.83,1432.67 2013.17,1439.33 2010.5,1446C 2008.45,1446.32 2006.45,1445.99 2004.5,1445C 1952.6,1425.31 1900.94,1405.15 1849.5,1384.5C 1855.28,1370.61 1860.78,1356.61 1866,1342.5C 1868.41,1337.34 1871.08,1332.34 1874,1327.5C 1880.18,1321.82 1887.35,1318.49 1895.5,1317.5 Z"/></g>
<g><path style="opacity:1" fill="#fbfbfd" d="M 1904.5,1343.5 C 1917.76,1342.89 1928.59,1347.55 1937,1357.5C 1938.4,1359.64 1939.24,1361.97 1939.5,1364.5C 1937.24,1373.63 1934.57,1382.63 1931.5,1391.5C 1916.02,1386.73 1900.85,1381.06 1886,1374.5C 1887.82,1366.17 1890.82,1358.17 1895,1350.5C 1897.53,1347.12 1900.7,1344.78 1904.5,1343.5 Z"/></g>
<g><path style="opacity:1" fill="#060399" d="M 425.5,1364.5 C 438.665,1390.83 451.331,1417.5 463.5,1444.5C 455.269,1449.2 446.769,1453.53 438,1457.5C 433,1447.5 428,1437.5 423,1427.5C 380.909,1447.46 338.742,1467.3 296.5,1487C 295.216,1487.68 294.049,1487.52 293,1486.5C 290.44,1480.38 287.606,1474.38 284.5,1468.5C 284.709,1467.91 285.043,1467.41 285.5,1467C 328.318,1447.09 370.985,1426.92 413.5,1406.5C 409.03,1397.06 404.696,1387.56 400.5,1378C 400.645,1377.23 400.978,1376.56 401.5,1376C 409.713,1372.39 417.713,1368.56 425.5,1364.5 Z"/></g>
<g><path style="opacity:1" fill="#faf9fd" d="M 853.5,1368.5 C 857.846,1368.33 862.179,1368.5 866.5,1369C 871.331,1371.68 871.831,1375.18 868,1379.5C 861.688,1385.16 854.688,1389.83 847,1393.5C 830,1448.17 832,1502.17 853,1555.5C 856.384,1562.21 860.55,1568.38 865.5,1574C 868.338,1576.76 871.671,1577.76 875.5,1577C 878.867,1573.3 882.534,1569.96 886.5,1567C 888.112,1566.28 889.612,1566.45 891,1567.5C 891.915,1583.58 884.415,1591.42 868.5,1591C 852.446,1581.94 840.946,1568.77 834,1551.5C 830.402,1542.44 827.735,1533.11 826,1523.5C 824.456,1504.19 824.123,1484.86 825,1465.5C 826.417,1439.07 828.751,1412.74 832,1386.5C 836.719,1382.45 840.719,1377.78 844,1372.5C 847.067,1370.78 850.233,1369.45 853.5,1368.5 Z"/></g>
<g><path style="opacity:1" fill="#fbfbfd" d="M 811.5,1392.5 C 819.577,1392.92 822.577,1397.26 820.5,1405.5C 819.729,1420.79 817.229,1435.79 813,1450.5C 811.949,1459.47 811.282,1468.47 811,1477.5C 799.551,1449.06 799.718,1420.72 811.5,1392.5 Z"/></g>
<g><path style="opacity:1" fill="#f9f9fc" d="M 1445.5,1395.5 C 1449.03,1395.35 1451.86,1396.68 1454,1399.5C 1454.86,1427.9 1453.86,1456.23 1451,1484.5C 1446.02,1509.77 1441.35,1535.1 1437,1560.5C 1434.46,1572.46 1429.8,1583.46 1423,1593.5C 1418.63,1598.76 1413.13,1602.1 1406.5,1603.5C 1405.83,1603.17 1405.17,1602.83 1404.5,1602.5C 1418.48,1576.39 1427.98,1548.72 1433,1519.5C 1438.68,1504.72 1441.68,1489.39 1442,1473.5C 1443.08,1448.18 1443.75,1422.85 1444,1397.5C 1444.72,1396.96 1445.22,1396.29 1445.5,1395.5 Z"/></g>
<g><path style="opacity:1" fill="#050299" d="M 1839.5,1407.5 C 1848.47,1411.65 1857.13,1416.32 1865.5,1421.5C 1856.37,1439.13 1847.03,1456.63 1837.5,1474C 1848.5,1479.83 1859.5,1485.67 1870.5,1491.5C 1880.16,1475.53 1889.32,1459.19 1898,1442.5C 1905.6,1447.05 1913.43,1451.22 1921.5,1455C 1922.52,1456.05 1922.68,1457.22 1922,1458.5C 1913.95,1474.09 1905.79,1489.59 1897.5,1505C 1910.31,1512.57 1923.31,1519.91 1936.5,1527C 1937.45,1527.62 1938.28,1527.45 1939,1526.5C 1948.16,1508.18 1957.82,1490.18 1968,1472.5C 1975.84,1477.09 1983.84,1481.42 1992,1485.5C 1991.57,1489.38 1990.24,1493.05 1988,1496.5C 1976.08,1518.01 1964.41,1539.67 1953,1561.5C 1902.96,1534.63 1852.79,1507.97 1802.5,1481.5C 1801.42,1480.64 1801.25,1479.64 1802,1478.5C 1815.03,1455.1 1827.53,1431.43 1839.5,1407.5 Z"/></g>
<g><path style="opacity:1" fill="#f9f9fc" d="M 787.5,1409.5 C 791.308,1410.72 794.308,1412.89 796.5,1416C 786.375,1486.25 797.042,1553.25 828.5,1617C 828.167,1617.17 827.833,1617.33 827.5,1617.5C 812.011,1605.55 801.178,1590.21 795,1571.5C 785.471,1540.91 781.305,1509.58 782.5,1477.5C 782.188,1454.67 783.855,1432 787.5,1409.5 Z"/></g>
<g><path style="opacity:1" fill="#f9f9fc" d="M 1469.5,1413.5 C 1478.42,1415.17 1481.76,1420.67 1479.5,1430C 1479.05,1453.94 1477.22,1477.77 1474,1501.5C 1470.43,1518.01 1466.1,1534.34 1461,1550.5C 1457.77,1559.54 1453.77,1568.21 1449,1576.5C 1448.64,1586.08 1446.97,1595.41 1444,1604.5C 1440.47,1614.52 1433.97,1617.85 1424.5,1614.5C 1429.97,1605.86 1434.8,1596.86 1439,1587.5C 1445.07,1557.21 1452.41,1527.21 1461,1497.5C 1465.35,1469.65 1468.18,1441.65 1469.5,1413.5 Z"/></g>
<g><path style="opacity:1" fill="#f8f7fc" d="M 761.5,1433.5 C 770.707,1431.61 773.54,1434.94 770,1443.5C 769.137,1466.67 770.803,1489.67 775,1512.5C 782.335,1550.51 792.168,1587.84 804.5,1624.5C 804.167,1624.83 803.833,1625.17 803.5,1625.5C 791.881,1610.93 783.381,1594.6 778,1576.5C 765.359,1529.7 759.859,1482.03 761.5,1433.5 Z"/></g>
<g><path style="opacity:1" fill="#f8f8fc" d="M 1491.5,1437.5 C 1494.51,1438.42 1497.34,1439.75 1500,1441.5C 1499.83,1447.21 1500.99,1452.55 1503.5,1457.5C 1500.3,1473.73 1497.8,1490.06 1496,1506.5C 1493.94,1510.69 1492.27,1515.02 1491,1519.5C 1487.64,1544.61 1481.31,1568.95 1472,1592.5C 1466.52,1605.81 1458.35,1617.15 1447.5,1626.5C 1459.66,1598.85 1468.82,1569.85 1475,1539.5C 1481.69,1505.68 1487.19,1471.68 1491.5,1437.5 Z"/></g>
<g><path style="opacity:1" fill="#060399" d="M 471.5,1460.5 C 487.168,1483.22 502.168,1506.55 516.5,1530.5C 508.638,1536.42 500.305,1541.25 491.5,1545C 480.997,1528.34 470.33,1511.84 459.5,1495.5C 450.5,1501 441.5,1506.5 432.5,1512C 430.673,1512.9 429.34,1514.23 428.5,1516C 437.833,1531.33 447.167,1546.67 456.5,1562C 456.355,1562.77 456.022,1563.44 455.5,1564C 447.915,1568.71 440.415,1573.54 433,1578.5C 423.292,1562.92 413.458,1547.42 403.5,1532C 402.5,1531.33 401.5,1531.33 400.5,1532C 388.668,1539.75 376.668,1547.25 364.5,1554.5C 363.479,1555 363.312,1555.67 364,1556.5C 374.958,1573.58 385.792,1590.75 396.5,1608C 388.479,1613.83 380.146,1618.83 371.5,1623C 356.5,1599.33 341.5,1575.67 326.5,1552C 374.898,1521.48 423.231,1490.98 471.5,1460.5 Z"/></g>
<g><path style="opacity:1" fill="#fcfcfe" d="M 739.5,1472.5 C 744.737,1473.24 747.904,1476.24 749,1481.5C 748.565,1493.15 748.565,1504.82 749,1516.5C 759.072,1546.46 767.739,1576.79 775,1607.5C 775.998,1611.47 776.331,1615.47 776,1619.5C 733.259,1588.6 694.759,1552.93 660.5,1512.5C 666.326,1508.09 672.326,1503.92 678.5,1500C 691.5,1495 704.5,1490 717.5,1485C 725.384,1481.57 732.717,1477.4 739.5,1472.5 Z"/></g>
<g><path style="opacity:1" fill="#fdfdfe" d="M 1515.5,1481.5 C 1528.67,1484.5 1541.34,1489 1553.5,1495C 1572.19,1506.35 1590.19,1518.68 1607.5,1532C 1570.07,1573.46 1527.9,1608.96 1481,1638.5C 1478.31,1635.13 1476.15,1631.46 1474.5,1627.5C 1484,1591.5 1493.5,1555.5 1503,1519.5C 1509.26,1507.55 1513.43,1494.88 1515.5,1481.5 Z"/></g>
<g><path style="opacity:1" fill="#07039a" d="M 1785.5,1503.5 C 1832.46,1536.66 1879.13,1570.32 1925.5,1604.5C 1921.42,1609.66 1917.59,1614.99 1914,1620.5C 1913.2,1621.8 1912.03,1622.47 1910.5,1622.5C 1872.09,1612.81 1833.76,1603.31 1795.5,1594C 1825.36,1616.03 1855.36,1637.86 1885.5,1659.5C 1881.53,1665.31 1877.36,1670.97 1873,1676.5C 1826.53,1643.03 1780.37,1609.19 1734.5,1575C 1738.27,1568.73 1742.61,1562.9 1747.5,1557.5C 1787.04,1568.14 1826.71,1577.97 1866.5,1587C 1836.03,1565.36 1805.69,1543.53 1775.5,1521.5C 1774.42,1520.64 1774.25,1519.64 1775,1518.5C 1778.72,1513.62 1782.22,1508.62 1785.5,1503.5 Z"/></g>
<g><path style="opacity:1" fill="#06039a" d="M 530.5,1551.5 C 533.984,1555.09 537.484,1558.76 541,1562.5C 542.919,1564.69 544.253,1567.02 545,1569.5C 509.02,1599.31 473.187,1629.31 437.5,1659.5C 449.381,1674.09 461.381,1688.59 473.5,1703C 466,1709.17 458.5,1715.33 451,1721.5C 434.167,1701.33 417.333,1681.17 400.5,1661C 443.731,1624.26 487.064,1587.76 530.5,1551.5 Z"/></g>
<g><path style="opacity:1" fill="#06039a" d="M 1650.5,1658.5 C 1652.37,1658.86 1653.87,1659.86 1655,1661.5C 1689.64,1704.98 1724.48,1748.31 1759.5,1791.5C 1755.01,1795.82 1750.34,1799.99 1745.5,1804C 1743.96,1805.19 1742.29,1805.52 1740.5,1805C 1705.97,1785.41 1671.31,1766.41 1636.5,1748C 1659.67,1776.5 1682.83,1805 1706,1833.5C 1706.16,1835.39 1705.33,1836.89 1703.5,1838C 1699.17,1841.17 1694.83,1844.33 1690.5,1847.5C 1654.31,1803.14 1618.31,1758.64 1582.5,1714C 1588.17,1709.5 1593.83,1705 1599.5,1700.5C 1635.03,1720.59 1670.69,1740.09 1706.5,1759C 1683,1730.17 1659.5,1701.33 1636,1672.5C 1635.38,1671.55 1635.55,1670.72 1636.5,1670C 1641.65,1666.68 1646.31,1662.85 1650.5,1658.5 Z"/></g>
<g><path style="opacity:1" fill="#050299" d="M 681.5,1698.5 C 689.294,1701.9 696.294,1706.57 702.5,1712.5C 680.755,1767.57 658.922,1822.57 637,1877.5C 630.639,1872.63 624.473,1867.63 618.5,1862.5C 623.025,1850.62 627.692,1838.78 632.5,1827C 621.135,1817.13 609.135,1807.97 596.5,1799.5C 586.426,1808.29 576.26,1816.95 566,1825.5C 559.384,1821.38 553.217,1816.71 547.5,1811.5C 592.186,1773.81 636.853,1736.14 681.5,1698.5 Z"/></g>
<g><path style="opacity:1" fill="#f9f9fc" d="M 666.5,1738.5 C 667.376,1738.37 668.043,1738.7 668.5,1739.5C 660.158,1758.87 651.825,1778.2 643.5,1797.5C 635.36,1791.86 627.36,1786.03 619.5,1780C 635.36,1766.3 651.027,1752.47 666.5,1738.5 Z"/></g>
<g><path style="opacity:1" fill="#050299" d="M 1529.5,1744.5 C 1547.06,1743.96 1562.39,1749.46 1575.5,1761C 1600.7,1785.88 1617.2,1815.71 1625,1850.5C 1627.63,1867.76 1623.96,1883.43 1614,1897.5C 1597.94,1912.42 1579.77,1915.59 1559.5,1907C 1544.14,1898.64 1531.64,1887.14 1522,1872.5C 1507.07,1851.37 1497.4,1828.03 1493,1802.5C 1488.78,1772.6 1500.94,1753.27 1529.5,1744.5 Z"/></g>
<g><path style="opacity:1" fill="#060399" d="M 762.5,1755.5 C 783.057,1754.36 798.224,1762.69 808,1780.5C 812,1796.17 810.167,1811.17 802.5,1825.5C 801.277,1826.61 799.944,1826.78 798.5,1826C 793.287,1823.23 787.954,1820.73 782.5,1818.5C 782.167,1817.83 781.833,1817.17 781.5,1816.5C 789.42,1792.79 781.087,1782.29 756.5,1785C 746.775,1793.98 745.941,1803.81 754,1814.5C 761.047,1822.54 767.713,1830.88 774,1839.5C 779.729,1850.95 781.062,1862.95 778,1875.5C 772.85,1893.63 762.684,1908.13 747.5,1919C 724.936,1929.15 705.77,1924.65 690,1905.5C 682.557,1890.64 681.557,1875.3 687,1859.5C 688.53,1855.91 689.864,1852.24 691,1848.5C 691.347,1846.82 692.347,1845.82 694,1845.5C 700.807,1847.71 707.307,1850.37 713.5,1853.5C 709.743,1861.45 708.243,1869.78 709,1878.5C 713.22,1891.38 722.053,1896.88 735.5,1895C 747.479,1890.2 753.313,1881.37 753,1868.5C 748.46,1859.43 742.46,1851.43 735,1844.5C 719.858,1824.5 718.525,1803.5 731,1781.5C 738.379,1768.91 748.879,1760.25 762.5,1755.5 Z"/></g>
<g><path style="opacity:1" fill="#fdfdfe" d="M 1535.5,1773.5 C 1545.19,1772.45 1553.86,1774.95 1561.5,1781C 1579.5,1798.83 1592,1819.99 1599,1844.5C 1599.67,1851.5 1599.67,1858.5 1599,1865.5C 1594.46,1879.34 1584.96,1884.84 1570.5,1882C 1558.34,1877.18 1548.5,1869.34 1541,1858.5C 1530.72,1844.26 1523.38,1828.59 1519,1811.5C 1514.19,1794.04 1519.69,1781.37 1535.5,1773.5 Z"/></g>
<g><path style="opacity:1" fill="#06039a" d="M 1448.5,1786.5 C 1449.82,1786.33 1450.99,1786.66 1452,1787.5C 1473.17,1839.83 1494.33,1892.17 1515.5,1944.5C 1509.4,1948.15 1502.9,1951.15 1496,1953.5C 1495.23,1953.36 1494.56,1953.02 1494,1952.5C 1472.83,1900.17 1451.67,1847.83 1430.5,1795.5C 1436.32,1792.12 1442.32,1789.12 1448.5,1786.5 Z"/></g>
<g><path style="opacity:1" fill="#060299" d="M 864.5,1800.5 C 881.325,1799.05 895.492,1804.38 907,1816.5C 913.747,1826.16 916.081,1836.83 914,1848.5C 913.366,1854.64 912.2,1860.64 910.5,1866.5C 903.213,1864.89 896.047,1862.89 889,1860.5C 889.543,1853.89 889.543,1847.22 889,1840.5C 884.748,1832.7 878.081,1828.7 869,1828.5C 859.082,1830.09 853.582,1835.92 852.5,1846C 852.952,1849.41 854.119,1852.58 856,1855.5C 866.108,1864.92 876.108,1874.59 886,1884.5C 894.48,1897.01 896.813,1910.67 893,1925.5C 889.684,1941.97 881.851,1955.81 869.5,1967C 859.264,1974.1 847.93,1976.43 835.5,1974C 808.514,1965.9 797.347,1947.74 802,1919.5C 802.528,1913.43 803.361,1907.43 804.5,1901.5C 812.06,1902.68 819.56,1904.01 827,1905.5C 825.594,1912.69 825.26,1920.03 826,1927.5C 829.373,1941.44 838.207,1947.28 852.5,1945C 861.477,1942.02 866.977,1935.85 869,1926.5C 870.468,1920.14 869.135,1914.47 865,1909.5C 854.035,1900.87 844.035,1891.2 835,1880.5C 823.769,1852.91 828.935,1828.75 850.5,1808C 855.101,1805.2 859.768,1802.7 864.5,1800.5 Z"/></g>
<g><path style="opacity:1" fill="#07039a" d="M 1412.5,1801.5 C 1414.45,1801.23 1415.95,1801.89 1417,1803.5C 1420.18,1811.69 1422.51,1820.02 1424,1828.5C 1413.8,1832.07 1403.64,1835.73 1393.5,1839.5C 1408.77,1884.66 1423.44,1929.99 1437.5,1975.5C 1430.22,1977.7 1422.89,1979.7 1415.5,1981.5C 1401.57,1936.72 1387.24,1892.06 1372.5,1847.5C 1371.83,1847.17 1371.17,1846.83 1370.5,1846.5C 1360.5,1849.67 1350.5,1852.5 1340.5,1855C 1337.41,1846.55 1334.41,1838.05 1331.5,1829.5C 1331.71,1828.91 1332.04,1828.41 1332.5,1828C 1359.37,1819.43 1386.04,1810.6 1412.5,1801.5 Z"/></g>
<g><path style="opacity:1" fill="#050299" d="M 980.5,1833.5 C 1014,1831.48 1033.5,1847.14 1039,1880.5C 1041.95,1916.09 1035.28,1949.76 1019,1981.5C 1010.67,1995.16 998.834,2004.33 983.5,2009C 961.192,2012.43 944.692,2004.26 934,1984.5C 926.848,1966.51 924.514,1947.85 927,1928.5C 928.781,1901.01 937.448,1876.01 953,1853.5C 957.167,1849.33 961.333,1845.17 965.5,1841C 970.313,1837.93 975.313,1835.43 980.5,1833.5 Z"/></g>
<g><path style="opacity:1" fill="#07039a" d="M 1289.5,1835.5 C 1315.98,1888.47 1341.98,1941.8 1367.5,1995.5C 1359.57,1997.59 1351.57,1999.09 1343.5,2000C 1337.83,1988.33 1332.17,1976.67 1326.5,1965C 1311.76,1966.78 1297.09,1969.28 1282.5,1972.5C 1281.81,1985.82 1281.31,1999.15 1281,2012.5C 1273.2,2014.23 1265.37,2015.89 1257.5,2017.5C 1260.08,1958.47 1263.24,1899.47 1267,1840.5C 1274.61,1838.88 1282.11,1837.21 1289.5,1835.5 Z"/></g>
<g><path style="opacity:1" fill="#07039a" d="M 1113.5,1846.5 C 1136.06,1844.91 1151.56,1854.57 1160,1875.5C 1162.95,1882.94 1164.62,1890.6 1165,1898.5C 1157.72,1901.54 1150.22,1903.87 1142.5,1905.5C 1142.3,1893.59 1137.3,1884.42 1127.5,1878C 1115.62,1874.41 1106.45,1877.91 1100,1888.5C 1094.98,1898.23 1091.98,1908.56 1091,1919.5C 1089.94,1936.91 1090.61,1954.24 1093,1971.5C 1095.38,1981.79 1101.21,1989.29 1110.5,1994C 1119.31,1996.06 1126.48,1993.56 1132,1986.5C 1136.86,1978.07 1140.36,1969.07 1142.5,1959.5C 1149.85,1962.84 1156.85,1966.67 1163.5,1971C 1160.41,1988.18 1153.08,2003.18 1141.5,2016C 1113.39,2031.74 1091.89,2025.24 1077,1996.5C 1068.02,1973.68 1064.69,1950.01 1067,1925.5C 1067.98,1901.88 1075.32,1880.54 1089,1861.5C 1095.82,1854.15 1103.99,1849.15 1113.5,1846.5 Z"/></g>
<g><path style="opacity:1" fill="#09049a" d="M 1222.5,2012.5 C 1222.5,2014.5 1222.5,2016.5 1222.5,2018.5C 1220.26,2018.21 1218.26,2018.54 1216.5,2019.5C 1211.44,2019.22 1206.44,2019.55 1201.5,2020.5C 1196.69,1963.19 1192.36,1905.86 1188.5,1848.5C 1196.14,1847.69 1203.8,1847.35 1211.5,1847.5C 1215.69,1902.47 1219.35,1957.47 1222.5,2012.5 Z"/></g>
<g><path style="opacity:1" fill="#fdfcfe" d="M 985.5,1862.5 C 1002.93,1863.08 1013.09,1872.08 1016,1889.5C 1017.57,1915.53 1012.57,1940.2 1001,1963.5C 995.31,1973.35 986.81,1979.02 975.5,1980.5C 963.915,1979.09 956.415,1972.75 953,1961.5C 947.739,1934.97 950.739,1909.31 962,1884.5C 966.833,1873.83 974.666,1866.5 985.5,1862.5 Z"/></g>
<g><path style="opacity:1" fill="#fbfafd" d="M 1287.5,1879.5 C 1295.88,1898.6 1304.55,1917.6 1313.5,1936.5C 1303.63,1939.14 1293.63,1941.14 1283.5,1942.5C 1284.54,1925.19 1285.2,1907.86 1285.5,1890.5C 1286.17,1886.83 1286.83,1883.17 1287.5,1879.5 Z"/></g>
<g><path style="opacity:1" fill="#8582cd" d="M 1287.5,1879.5 C 1286.83,1883.17 1286.17,1886.83 1285.5,1890.5C 1285.18,1886.45 1285.51,1882.45 1286.5,1878.5C 1287.11,1878.62 1287.44,1878.96 1287.5,1879.5 Z"/></g>
<g><path style="opacity:1" fill="#6b68c3" d="M 1222.5,2012.5 C 1223.47,2014.61 1223.8,2016.94 1223.5,2019.5C 1221.17,2019.5 1218.83,2019.5 1216.5,2019.5C 1218.26,2018.54 1220.26,2018.21 1222.5,2018.5C 1222.5,2016.5 1222.5,2014.5 1222.5,2012.5 Z"/></g>
</svg>
